<svg xmlns="http://www.w3.org/2000/svg" width="128" height="128" viewBox="0 0 128 128">
  <title>BLUEPRINT</title>
  <g>
    <g>
      <g>
        <polygon points="104.955 95.12 104.955 75.488 83.148 95.12 104.955 95.12" fill="#f3f5f9"/>
        <polygon points="104.955 64.723 104.955 18.255 1.75 18.255 1.75 95.12 71.192 95.12 104.955 64.723" fill="#f3f5f9"/>
      </g>
      <path d="M54.947,109.745h71.3V45.551Zm63.3-8H75.79l42.46-38.227Z" fill="#4d5e80"/>
      <g>
        <path d="M68.75,25.056h-59A1.751,1.751,0,0,0,8,26.806V76.435a1.751,1.751,0,0,0,1.75,1.75H20.166a1.751,1.751,0,0,0,1.75-1.75V70.669a5.778,5.778,0,0,1,5.506,5.766,1.751,1.751,0,0,0,1.75,1.75H37.5v8.384a1.751,1.751,0,0,0,1.75,1.75h29.5a1.751,1.751,0,0,0,1.75-1.75V26.806A1.751,1.751,0,0,0,68.75,25.056ZM67,28.556V51.439H41V47.973h5.772a1.75,1.75,0,0,0,1.75-1.75V44.739A9.283,9.283,0,0,0,41,35.638V28.556ZM30.751,74.685a9.283,9.283,0,0,0-9.1-7.522H20.166a1.751,1.751,0,0,0-1.75,1.75v5.772H11.5V28.556h26v8.661a1.75,1.75,0,0,0,1.75,1.75,5.779,5.779,0,0,1,5.766,5.506H39.249a1.751,1.751,0,0,0-1.75,1.75V60.17a1.75,1.75,0,0,0,1.75,1.75h5.766a5.778,5.778,0,0,1-5.766,5.506,1.751,1.751,0,0,0-1.75,1.75v5.509ZM67,84.819H41V70.755a9.283,9.283,0,0,0,7.522-9.1V60.17a1.751,1.751,0,0,0-1.75-1.75H41V54.939H67Z" fill="#e1e6f0"/>
        <path d="M75.79,28.556H97.02a1.75,1.75,0,0,0,0-3.5H75.79a1.75,1.75,0,0,0,0,3.5Z" fill="#e1e6f0"/>
        <path d="M97.02,33.871H75.79a1.75,1.75,0,0,0,0,3.5H97.02a1.75,1.75,0,0,0,0-3.5Z" fill="#e1e6f0"/>
        <path d="M97.02,42.685H75.79a1.75,1.75,0,0,0,0,3.5H97.02a1.75,1.75,0,0,0,0-3.5Z" fill="#e1e6f0"/>
        <path d="M97.02,51.5H75.79a1.75,1.75,0,0,0,0,3.5H97.02a1.75,1.75,0,0,0,0-3.5Z" fill="#e1e6f0"/>
        <path d="M95.25,60.314H75.79a1.75,1.75,0,0,0,0,3.5H95.25a1.75,1.75,0,0,0,0-3.5Z" fill="#e1e6f0"/>
      </g>
    </g>
    <g>
      <path d="M39.249,88.319h29.5a1.751,1.751,0,0,0,1.75-1.75V26.806a1.751,1.751,0,0,0-1.75-1.75h-59A1.751,1.751,0,0,0,8,26.806V76.435a1.751,1.751,0,0,0,1.75,1.75H20.166a1.751,1.751,0,0,0,1.75-1.75V70.669a5.778,5.778,0,0,1,5.506,5.766,1.751,1.751,0,0,0,1.75,1.75H37.5v8.384A1.751,1.751,0,0,0,39.249,88.319ZM67,84.819H41V70.755a9.283,9.283,0,0,0,7.522-9.1V60.17a1.751,1.751,0,0,0-1.75-1.75H41V54.939H67Zm0-56.263V51.439H41V47.973h5.772a1.75,1.75,0,0,0,1.75-1.75V44.739A9.283,9.283,0,0,0,41,35.638V28.556ZM30.751,74.685a9.283,9.283,0,0,0-9.1-7.522H20.166a1.751,1.751,0,0,0-1.75,1.75v5.772H11.5V28.556h26v8.661a1.75,1.75,0,0,0,1.75,1.75,5.779,5.779,0,0,1,5.766,5.506H39.249a1.751,1.751,0,0,0-1.75,1.75V60.17a1.75,1.75,0,0,0,1.75,1.75h5.766a5.778,5.778,0,0,1-5.766,5.506,1.751,1.751,0,0,0-1.75,1.75v5.509Z"/>
      <path d="M126.962,43.952a1.751,1.751,0,0,0-1.883.3L106.705,60.792V18.254a1.751,1.751,0,0,0-1.75-1.75H26.125a1.75,1.75,0,0,0,0,3.5h77.08V63.943l-9.039,8.139L70.52,93.371H3.5V20h9.875a1.75,1.75,0,0,0,0-3.5H1.75A1.751,1.751,0,0,0,0,18.254V95.121a1.751,1.751,0,0,0,1.75,1.75H66.632L53.776,108.445a1.751,1.751,0,0,0,1.171,3.051h71.3a1.751,1.751,0,0,0,1.75-1.75V45.551A1.751,1.751,0,0,0,126.962,43.952ZM124.5,108H59.506L72.359,96.424l0,0,33.763-30.4h0L124.5,49.481Z"/>
      <path d="M103.785,74.186h0L81.977,93.82h0l-7.358,6.625A1.75,1.75,0,0,0,75.79,103.5h42.46a1.75,1.75,0,0,0,0-3.5h-37.9l3.471-3.125h21.135a1.751,1.751,0,0,0,1.75-1.75V76.267l9.8-8.819v7.237a1.75,1.75,0,0,0,3.5,0V63.518a1.75,1.75,0,0,0-2.921-1.3Zm-.58,19.185h-15.5l15.5-13.953Z"/>
      <path d="M118.25,83.554a1.751,1.751,0,0,0-1.75,1.75v5.823a1.75,1.75,0,1,0,3.5,0V85.3A1.751,1.751,0,0,0,118.25,83.554Z"/>
      <path d="M75.79,28.556H97.02a1.75,1.75,0,0,0,0-3.5H75.79a1.75,1.75,0,0,0,0,3.5Z"/>
      <path d="M75.79,37.371H97.02a1.75,1.75,0,0,0,0-3.5H75.79a1.75,1.75,0,0,0,0,3.5Z"/>
      <path d="M75.79,46.185H97.02a1.75,1.75,0,0,0,0-3.5H75.79a1.75,1.75,0,0,0,0,3.5Z"/>
      <path d="M75.79,55H97.02a1.75,1.75,0,0,0,0-3.5H75.79a1.75,1.75,0,0,0,0,3.5Z"/>
      <path d="M75.79,63.814H95.25a1.75,1.75,0,0,0,0-3.5H75.79a1.75,1.75,0,0,0,0,3.5Z"/>
    </g>
  </g>
</svg>
